<svg width="32" height="40" viewBox="0 0 32 40" fill="none" xmlns="http://www.w3.org/2000/svg">
<path fill-rule="evenodd" clip-rule="evenodd" d="M16 4C9.37258 4 4 9.37258 4 16C4 18.0557 4.72789 20.3536 5.96301 22.7356C7.18914 25.1003 8.84719 27.4183 10.5439 29.4786C12.2356 31.5329 13.933 33.2914 15.2096 34.5376C15.4966 34.8178 15.7617 35.0715 16 35.2962C16.2383 35.0715 16.5034 34.8178 16.7904 34.5376C18.067 33.2914 19.7644 31.5329 21.4561 29.4786C23.1528 27.4183 24.8109 25.1003 26.037 22.7356C27.2721 20.3536 28 18.0557 28 16C28 9.37258 22.6274 4 16 4ZM16 38C14.6984 39.5185 14.6981 39.5182 14.6976 39.5179L14.6934 39.5142L14.6833 39.5055L14.6483 39.4752C14.6184 39.4492 14.5756 39.4118 14.5207 39.3635C14.411 39.2669 14.2531 39.1264 14.0538 38.9454C13.6554 38.5836 13.0909 38.0593 12.4154 37.3999C11.067 36.0836 9.26435 34.2171 7.45614 32.0214C5.65281 29.8317 3.81086 27.2747 2.41199 24.5769C1.02211 21.8964 0 18.9443 0 16C0 7.16344 7.16344 0 16 0C24.8366 0 32 7.16344 32 16C32 18.9443 30.9779 21.8964 29.588 24.5769C28.1891 27.2747 26.3472 29.8317 24.5439 32.0214C22.7356 34.2171 20.933 36.0836 19.5846 37.3999C18.9091 38.0593 18.3446 38.5836 17.9462 38.9454C17.7469 39.1264 17.589 39.2669 17.4793 39.3635C17.4244 39.4118 17.3816 39.4492 17.3517 39.4752L17.3167 39.5055L17.3066 39.5142L17.3034 39.5169C17.303 39.5173 17.3016 39.5185 16 38ZM16 38L14.6976 39.5179C15.4466 40.1598 16.5526 40.1605 17.3016 39.5185L16 38ZM16 12C13.7909 12 12 13.7909 12 16C12 18.2091 13.7909 20 16 20C18.2091 20 20 18.2091 20 16C20 13.7909 18.2091 12 16 12ZM8 16C8 11.5817 11.5817 8 16 8C20.4183 8 24 11.5817 24 16C24 20.4183 20.4183 24 16 24C11.5817 24 8 20.4183 8 16Z" fill="#90B079"/>
</svg>
